<?xml version="1.0" standalone="no"?>
<!DOCTYPE svg PUBLIC "-//W3C//DTD SVG 20010904//EN"
 "http://www.w3.org/TR/2001/REC-SVG-20010904/DTD/svg10.dtd">
<svg version="1.0" xmlns="http://www.w3.org/2000/svg"
 width="512.000000pt" height="512.000000pt" viewBox="0 0 512.000000 512.000000"
 preserveAspectRatio="xMidYMid meet">
<metadata>
Created by potrace 1.14, written by Peter Selinger 2001-2017
</metadata>
<g transform="translate(0.000000,512.000000) scale(0.100000,-0.100000)"
fill="#000000" stroke="none">
<path d="M2158 5115 c-1 -1 -73 -6 -158 -9 -85 -4 -173 -9 -195 -11 -22 -2
-78 -6 -124 -10 -47 -3 -98 -8 -115 -10 -17 -2 -53 -6 -81 -9 -48 -5 -162 -21
-215 -32 -14 -2 -41 -7 -60 -10 -19 -2 -53 -9 -75 -15 -22 -6 -48 -13 -59 -15
-146 -28 -320 -106 -393 -177 -71 -68 -82 -116 -58 -252 2 -11 7 -38 10 -60 3
-22 7 -51 9 -65 3 -14 7 -43 11 -65 3 -22 10 -67 15 -100 5 -33 12 -80 15
-105 3 -25 8 -56 10 -70 12 -85 26 -191 39 -295 3 -22 8 -56 10 -75 3 -19 8
-60 11 -90 4 -30 8 -68 10 -84 2 -16 6 -59 10 -95 6 -65 11 -111 20 -201 8
-74 14 -132 20 -195 2 -33 7 -85 10 -115 6 -62 11 -124 20 -255 3 -49 8 -110
10 -135 3 -25 8 -99 11 -165 3 -66 8 -140 9 -165 2 -25 6 -120 10 -211 l7
-167 -65 -21 c-114 -36 -324 -136 -427 -203 -307 -197 -439 -434 -385 -690 63
-302 433 -569 1028 -739 77 -23 147 -42 156 -44 9 -2 68 -15 131 -29 63 -14
138 -28 165 -32 28 -3 53 -8 56 -10 7 -4 122 -21 204 -30 28 -3 52 -7 55 -9 3
-2 46 -6 95 -10 50 -3 97 -8 105 -10 97 -25 969 -26 1120 -1 14 3 57 7 95 10
39 4 80 8 90 10 19 3 61 9 155 21 25 3 52 8 60 10 8 2 35 7 60 10 66 9 274 53
360 77 41 11 84 22 95 25 11 3 70 21 130 40 494 156 811 381 915 648 20 50 24
79 24 175 0 135 -15 186 -95 305 -81 121 -254 262 -428 349 -93 47 -268 122
-319 137 l-44 13 6 140 c4 78 8 173 11 211 2 39 7 115 10 170 5 93 11 180 20
300 2 28 6 86 10 130 3 44 8 100 10 125 7 72 14 140 20 215 3 39 10 108 15
155 5 47 12 112 15 145 3 33 8 76 10 95 4 31 14 115 30 247 6 49 45 340 50
373 2 14 9 61 15 105 6 44 22 147 36 230 13 82 24 165 24 183 0 180 -316 322
-860 388 -25 3 -58 7 -75 9 -16 2 -97 9 -180 15 -82 6 -168 13 -190 16 -43 6
-1041 15 -1047 9z"/>
</g>
</svg>
